<svg xmlns="http://www.w3.org/2000/svg" viewBox="0 0 227.74 196.26"><title>art</title><g id="art"><path d="M22.18,78.11v84.22H75.91V78.11Zm23.76,60.71H29.15V129H45.94Zm0-16.79H29.15v-9.84H45.94Zm0-16.6H29.15V95.58H45.94Zm23,33.39H52.15V129H69ZM69,122H52.15v-9.84H69Zm0-16.6H52.15V95.58H69Z" style="fill:#d3d3d3;stroke:#000;stroke-miterlimit:10;stroke-width:0.25px"/><rect x="29.15" y="95.58" width="16.79" height="9.85" style="fill:#e8e8e8;stroke:#000;stroke-miterlimit:10;stroke-width:0.25px"/><rect x="29.15" y="112.19" width="16.79" height="9.84" style="fill:#e8e8e8;stroke:#000;stroke-miterlimit:10;stroke-width:0.25px"/><rect x="29.15" y="128.98" width="16.79" height="9.84" style="fill:#e8e8e8;stroke:#000;stroke-miterlimit:10;stroke-width:0.25px"/><polygon points="114.09 31.4 114.09 162.33 75.91 162.33 75.91 78.11 60.55 78.11 60.55 31.4 114.09 31.4" style="fill:#3a3a3a;stroke:#000;stroke-miterlimit:10;stroke-width:0.25px"/><rect x="29.15" y="95.58" width="16.79" height="9.85" style="fill:#606060"/><rect x="52.15" y="95.58" width="16.8" height="9.85" style="fill:#606060"/><rect x="29.15" y="112.19" width="16.79" height="9.84" style="fill:#606060"/><rect x="52.15" y="112.19" width="16.8" height="9.84" style="fill:#606060"/><rect x="29.15" y="128.98" width="16.79" height="9.84" style="fill:#606060"/><rect x="52.15" y="128.98" width="16.8" height="9.84" style="fill:#606060"/><rect x="67.42" y="46.35" width="16.79" height="9.85" style="fill:#e0e0e0"/><rect x="90.43" y="46.35" width="16.79" height="9.85" style="fill:#e0e0e0"/><rect x="67.42" y="62.96" width="16.79" height="9.85" style="fill:#e0e0e0"/><rect x="90.43" y="62.96" width="16.79" height="9.85" style="fill:#e0e0e0"/><rect x="75.91" y="79.74" width="8.3" height="9.85" style="fill:#e0e0e0"/><rect x="90.43" y="79.75" width="16.79" height="9.85" style="fill:#e0e0e0"/><path d="M112.88,69.32s29.44-50.66,60.45,10.58c0,0,5.18,11.94,8.84,12.39,4.05.5,50.74-13.12,38,26.2S138.18,174,117.5,144.57C89.68,105,112.88,69.32,112.88,69.32Z" style="fill:#d6aa7f;stroke:#000;stroke-miterlimit:10;stroke-width:0.25px"/><ellipse cx="131.12" cy="79.56" rx="9.72" ry="10.66" style="fill:#36768a"/><ellipse cx="124.95" cy="107.99" rx="9.72" ry="10.66" style="fill:#7ec2d6"/><ellipse cx="137.56" cy="136.27" rx="9.72" ry="10.66" style="fill:#6950a3"/><ellipse cx="163.87" cy="139.69" rx="9.72" ry="10.66" style="fill:#2ea9ff"/><path d="M22.78,36.8H19.89V71.57A8.05,8.05,0,0,0,14.09,69c-4.79,0-8.68,4.5-8.68,10S9.3,89.12,14.09,89.12s8.69-4.5,8.69-10.06V41H50.1V71.69A8.06,8.06,0,0,0,44.2,69c-4.8,0-8.69,4.5-8.69,10S39.4,89.12,44.2,89.12s8.69-4.5,8.69-10.06V36.8Z" style="fill:#161616"/><path d="M176.26,127.64c1.65,0,3.08.06,3.88,1.39,2.38,4,11.29,11.77,12.61,12.91a112.85,112.85,0,0,0-5.47-25.13c-4.3-12-11.71-11.68-12.16-11.65l-7.24,5.24c-.14,7.92.81,12.93,2.91,15.32C172.4,127.56,174.45,127.6,176.26,127.64Z" style="fill:#8a6743"/><path d="M170.66,125.86c1.66,1.9,3.75,1.94,5.59,2,1.61,0,3,.06,3.74,1.29,2.58,4.31,12.72,13,12.82,13.11l.16.14,0-.23a113,113,0,0,0-5.51-25.41c-4.27-11.95-11.62-11.82-12.3-11.78l-38.27-63.7c0-.07-4.31-6.73-7.91-4.28-3.46,2.66.43,9.6.47,9.67l38.27,63.72C167.56,118.36,168.52,123.42,170.66,125.86Zm-2.78-15.46-.06-.19L129.58,46.54c0-.07-3.84-6.85-.53-9.4,3.44-2.33,7.61,4.12,7.68,4.23L175,105l.15.12c.45,0,7.86-.36,12.16,11.65a112.85,112.85,0,0,1,5.47,25.13c-1.32-1.14-10.23-8.94-12.61-12.91-.8-1.33-2.23-1.36-3.88-1.39-1.81,0-3.86-.08-5.47-1.92C168.69,123.33,167.74,118.32,167.88,110.4Z"/><path d="M175.12,105.16,175,105,136.73,41.37c-.07-.11-4.24-6.56-7.68-4.23-3.31,2.55.49,9.33.53,9.4l38.24,63.67.06.19Z" style="fill:#98dda1"/></g></svg>