<svg xmlns="http://www.w3.org/2000/svg" viewBox="0 0 227.74 196.26"><title>documentary</title><g id="art"><polygon points="47.58 121.6 47.63 121.69 39.57 121.69 39.61 121.6 47.58 121.6" style="fill:#3f3f3f"/><path d="M85.47,73.64V84.07l-.1.05V73.64a9.18,9.18,0,0,0-9.17-9.17H11.91a9.18,9.18,0,0,0-9.17,9.17v38.79a9.18,9.18,0,0,0,9.17,9.17H33.78l0,.09H11.91a9.3,9.3,0,0,1-9.27-9.27V73.64a9.3,9.3,0,0,1,9.27-9.27H76.2A9.3,9.3,0,0,1,85.47,73.64Z" style="fill:#3f3f3f"/><path d="M85.47,102.78v9.64a9.3,9.3,0,0,1-9.27,9.27H53.89l0,0,0-.05H76.2a9.19,9.19,0,0,0,9.17-9.17v-9.7Z" style="fill:#3f3f3f"/><path d="M57.21,64.37c-.25,0-.5-.05-.74-.09H32.75l-.57.09h0c-.31,0-.63.07-.95.09H59A15.78,15.78,0,0,1,57.21,64.37Zm28.26,38.41-.1,0v9.7a9.19,9.19,0,0,1-9.17,9.17H53.85l0,.05,0,0h-.1l0,.1H76.2a9.37,9.37,0,0,0,9.36-9.36v-9.59ZM76.2,64.28H11.91a9.37,9.37,0,0,0-9.36,9.36v38.79a9.37,9.37,0,0,0,9.36,9.36H33.7l0-.1,0-.09H11.91a9.18,9.18,0,0,1-9.17-9.17V73.64a9.18,9.18,0,0,1,9.17-9.17H76.2a9.18,9.18,0,0,1,9.17,9.17V84.12l.1-.05.09,0V73.64A9.37,9.37,0,0,0,76.2,64.28ZM47.63,121.69l-.05-.09h-8l0,.09,0,.1h8.25l0-.1Z" style="fill:#3f3f3f"/><path d="M110.61,70.32v45.3l-25-12.78-.09-.06-.1,0v9.7a9.19,9.19,0,0,1-9.17,9.17H53.85l0,.05,0,0h-.1l0,.1h-.11l24,53.18H73.17L47.89,121.79h-.11l0-.1h-.11l-.05-.09h-8l0,.09,0,.1L14.25,175H9.72l24-53.18,0-.1,0-.09H11.91a9.18,9.18,0,0,1-9.17-9.17V73.64a9.18,9.18,0,0,1,9.17-9.17H76.2a9.18,9.18,0,0,1,9.17,9.17V84.12l.1-.05.09,0Z" style="fill:#3f3f3f"/><path d="M42.46,52.54A11.82,11.82,0,0,1,32.07,64.28a11.56,11.56,0,0,1-2.88,0A11.83,11.83,0,1,1,41.79,48.6a2.65,2.65,0,0,1,.12.37l-.09,0a11.74,11.74,0,1,0,.55,3.55c0-.26,0-.52,0-.79v0c0-.21,0-.43-.07-.64,0,.21.1.41.16.62v.05c0,.12,0,.25,0,.38Z" style="fill:#3f3f3f"/><path d="M42.56,52.12c0-.14,0-.27,0-.41a0,0,0,0,1,0,0c-.07-.22-.12-.44-.17-.66,0,.21.06.44.07.66-.06-.21-.11-.41-.16-.62,0,.21,0,.43.07.64v0c0,.27,0,.53,0,.79A11.73,11.73,0,1,1,41.82,49l.09,0H42v0c0-.12-.08-.24-.13-.36a2,2,0,0,0-.12-.34,11.93,11.93,0,1,0-13.26,16,6.17,6.17,0,0,0,.62.09,10.74,10.74,0,0,0,1.51.1h.56l.51,0a3.12,3.12,0,0,0,.44,0h.15l.46-.08h0a11.94,11.94,0,0,0,9.8-11.74v-.42Zm-.1,0c0-.13,0-.26,0-.38v-.05c-.06-.21-.11-.41-.16-.62,0,.21,0,.43.07.64v0c0,.27,0,.53,0,.79A11.76,11.76,0,0,1,30.63,64.28h2.13a11.94,11.94,0,0,0,9.8-11.74v-.07C42.52,52.35,42.49,52.24,42.46,52.12Z"/><path d="M76.26,47.15A17.22,17.22,0,0,1,59,64.37a17,17,0,0,1-1.76-.09A17.21,17.21,0,0,1,42.56,52.12a2.78,2.78,0,0,1-.12-.38h0a.06.06,0,0,1,0,0c0-.22,0-.45-.07-.66,0,.22.1.44.17.66a0,0,0,0,0,0,0,17.12,17.12,0,1,0-.62-4.56,17.73,17.73,0,0,0,.1,1.79v0h-.1c0-.13,0-.26,0-.39,0-.47-.06-.95-.06-1.43a17.22,17.22,0,0,1,34.44,0Z" style="fill:#3f3f3f"/><path d="M59,29.83A17.34,17.34,0,0,0,41.72,47.15c0,.36,0,.73,0,1.09,0,.12,0,.25,0,.36s0,.26,0,.39l.09,0H42v0a17.73,17.73,0,0,1-.1-1.79,17.14,17.14,0,1,1,.62,4.56,0,0,0,0,1,0,0c-.07-.22-.12-.44-.17-.66,0,.21.06.44.07.66-.06-.21-.11-.41-.16-.62,0,.21,0,.43.07.64,0,0,0,0,0,0a2.26,2.26,0,0,0,.11.37c0,.12.06.23.1.35A17.38,17.38,0,0,0,56.47,64.28c.24,0,.49.07.74.09a16.79,16.79,0,0,0,3.66,0c.25,0,.49-.05.74-.09A17.32,17.32,0,0,0,59,29.83ZM42.36,51c0,.21.06.44.07.66v.05h0l.09,0a0,0,0,0,1,0,0C42.46,51.47,42.41,51.25,42.36,51Z"/><path d="M76.17,47.15a17.13,17.13,0,0,1-33.64,4.56,0,0,0,0,1,0,0c-.07-.22-.12-.44-.17-.66,0,.21.06.44.07.66-.06-.21-.11-.41-.16-.62,0,.21,0,.43.07.64v0c0,.27,0,.53,0,.79A11.73,11.73,0,1,1,41.82,49l.09,0H42v0a17.73,17.73,0,0,1-.1-1.79,17.13,17.13,0,0,1,34.26,0Z" style="fill:#3f3f3f"/><polygon points="110.71 70.16 110.71 115.78 85.56 102.94 85.47 102.89 85.47 102.78 85.56 102.84 110.61 115.62 110.61 70.32 85.56 84.02 85.47 84.07 85.47 83.96 85.56 83.91 110.71 70.16" style="fill:#3f3f3f"/><path d="M85.56,83.8l-.09,0,0,0,0,0v.21l.1-.05.09,0,25-13.7v45.3l-25-12.78-.09-.06-.1,0V103l.1.06.09,0,25.24,12.89V70Z"/><polygon points="39.68 121.69 39.64 121.79 14.31 175.07 9.58 175.07 33.59 121.79 33.63 121.69 33.74 121.69 33.7 121.79 9.72 174.97 14.25 174.97 39.53 121.79 39.57 121.69 39.68 121.69" style="fill:#3f3f3f"/><path d="M39.61,121.6l0,.09,0,.1L14.25,175H9.72l24-53.18,0-.1,0-.09h-.21l0,.09,0,.1L9.49,175l-.06.14h4.94l25.37-53.38,0-.1.05-.09Z"/><polygon points="77.84 175.07 73.11 175.07 47.78 121.79 47.88 121.79 73.17 174.97 77.69 174.97 53.72 121.79 53.83 121.79 77.84 175.07" style="fill:#3f3f3f"/><path d="M53.93,121.79l0-.1h-.1l0,.1h-.11l24,53.18H73.17L47.89,121.79h-.11l0-.1h-.11l0,.1L73,175.11l0,.06H78Z"/><rect x="128.38" y="38.66" width="96.81" height="134.88" style="fill:#3f3f3f;stroke:#000;stroke-miterlimit:10;stroke-width:0.25px"/><rect x="134.65" y="44.92" width="11.26" height="11.26" rx="2.76" style="fill:#cecece"/><rect x="151.37" y="44.92" width="50.84" height="50.84" rx="12.45" style="fill:#cecece"/><rect x="151.37" y="102.5" width="50.84" height="50.84" rx="12.45" style="fill:#cecece"/><path d="M201.92,172.52v1H151.08v-1a12.48,12.48,0,0,1,12.45-12.44h25.95A12.48,12.48,0,0,1,201.92,172.52Z" style="fill:#cecece"/><rect x="134.65" y="61.12" width="11.26" height="11.26" rx="2.76" style="fill:#cecece"/><rect x="134.65" y="77.31" width="11.26" height="11.26" rx="2.76" style="fill:#cecece"/><rect x="134.65" y="93.5" width="11.26" height="11.26" rx="2.76" style="fill:#cecece"/><rect x="134.65" y="109.7" width="11.26" height="11.26" rx="2.76" style="fill:#cecece"/><rect x="134.65" y="125.89" width="11.26" height="11.26" rx="2.76" style="fill:#cecece"/><rect x="134.65" y="142.08" width="11.26" height="11.26" rx="2.76" style="fill:#cecece"/><rect x="134.65" y="158.28" width="11.26" height="11.26" rx="2.76" style="fill:#cecece"/><rect x="207.09" y="44.92" width="11.26" height="11.26" rx="2.76" style="fill:#cecece"/><rect x="207.09" y="61.12" width="11.26" height="11.26" rx="2.76" style="fill:#cecece"/><rect x="207.09" y="77.31" width="11.26" height="11.26" rx="2.76" style="fill:#cecece"/><rect x="207.09" y="93.5" width="11.26" height="11.26" rx="2.76" style="fill:#cecece"/><rect x="207.09" y="109.7" width="11.26" height="11.26" rx="2.76" style="fill:#cecece"/><rect x="207.09" y="125.89" width="11.26" height="11.26" rx="2.76" style="fill:#cecece"/><rect x="207.09" y="142.08" width="11.26" height="11.26" rx="2.76" style="fill:#cecece"/><rect x="207.09" y="158.28" width="11.26" height="11.26" rx="2.76" style="fill:#cecece"/><line x1="42.34" y1="51.75" x2="42.53" y2="51.71" style="fill:none"/></g></svg>