<svg xmlns="http://www.w3.org/2000/svg" viewBox="0 0 227.74 196.26"><title>rejse</title><g id="rejse"><circle cx="114.14" cy="98" r="84.49" style="fill:#3e9aff"/><circle cx="114.14" cy="98" r="84.3" transform="matrix(0.38, -0.92, 0.92, 0.38, -20.08, 165.95)" style="fill:none"/><path d="M138,47c-2-3.91-4.88-7.28-7.76-10.54-2.19-2.5-4.29-5.29-6.72-7.62-2-4.75-6.48-8.54-12-7a6,6,0,0,0-1.71.77A25.88,25.88,0,0,0,99,24.76c-3.93,1.91-6.39,5.61-8.45,9.3-4,7.24-8.48,14-15.41,18.76-3.62,2.49-7.29,4.87-10,8.41a14.41,14.41,0,0,0-2.83,12.25A19.92,19.92,0,0,0,81.67,88.05c9.18-.23,16.37-5.67,23.9-10.21,7.72-4.67,16.63-6.15,24.67-10.08,3.61-1.76,7.24-4.19,9-8C141.18,55.55,140,51,138,47Z" style="fill:#83cc1d"/><path d="M144,120.16a24,24,0,0,0-5.13-.89,42.86,42.86,0,0,1-6.32-1.36,42,42,0,0,1-12.46-6c-3.7-2.6-6.94-5.8-10.68-8.36a29.24,29.24,0,0,0-4-2.31,12.12,12.12,0,0,0-1.28-1.49,9.64,9.64,0,0,0-10.34-2.17,3.28,3.28,0,0,0-1.28.14,20.58,20.58,0,0,0-14,17.27c-.42,4.14,1.14,8.37.1,12.45-.95,3.71-3,7-4.49,10.55a17,17,0,0,0-.91,11.75,22.45,22.45,0,0,0,7.1,9.81c3,2.59,6.52,4.68,9.4,7.48s4.12,6.7,7.13,9.3,7.86,4,11.91,4.57c4.81.7,8.9-.9,12.67-3.83,7-5.44,11.54-13.74,16.33-21,2.64-4,5.37-8,7.91-12.1,2.39-3.85,4.54-8.14,4.74-12.75S148.54,121.79,144,120.16Z" style="fill:#83cc1d"/><path d="M128,78.09a5.35,5.35,0,0,0-6.3-2.11,7.2,7.2,0,0,0-9.07,5.39l-.43.56a11.12,11.12,0,0,0-.69,1l-.7.35-.2.09-.29.13s-.41.17-.5.2L109,84c-.53.18-1.07.35-1.61.51a3.05,3.05,0,0,0-.32.13,13.73,13.73,0,0,0-5.13,2.51,3.46,3.46,0,0,0-1,3.51,3.93,3.93,0,0,0,2.65,2.52,16.43,16.43,0,0,0,2.12.61,6.43,6.43,0,0,0,.55,1.69c1,4.13,5.46,6.79,9.74,6.8a6.75,6.75,0,0,0,1.84.71c3,.66,6.37-.44,7.77-3.33s.6-5.43-.24-8.2c-.07-.23-.14-.45-.2-.68s-.09-.85-.1-.63V90a4.78,4.78,0,0,0,.15-.6c0,.13-.32.63,0,0l.45-.86a19.41,19.41,0,0,0,1-2.16,5.6,5.6,0,0,0,.17-.54A8.54,8.54,0,0,0,128,84.4,5.94,5.94,0,0,0,128,78.09Z" style="fill:#83cc1d"/><path d="M43.43,144.53c-1.25-1.9-2.43-3.84-3.53-5.84" style="fill:#83cc1d"/><path d="M189.28,110.18l-.28-.11a12.32,12.32,0,0,1-4,3.38,8,8,0,0,1-8.46-.38c-1.75,2.18-3.78,4-5,6.53-1.45,2.93-2.7,6.23-5.66,8-3.88,2.33-7.5-.79-8.94-4.32a11.27,11.27,0,0,1-.74-5.19c-2.35-3.85-4.23-8-6.91-11.67a16.14,16.14,0,0,0-5.25-4.82c-2.54-1.38-5-.77-7.74-.84-3.37-.07-6.71-1.49-8.23-4.66s.09-6.39,2.74-8.43c5-3.84,11.13-5.17,17.31-5.56s12.58.26,18.7-1.33c-.55-4.24-.89-8.5-1.11-12.75-.33-6.2-1.23-13.53,1.35-19.36a4,4,0,0,1,5.58-2.16,5,5,0,0,1,5-2.74,7.87,7.87,0,0,1,1.1.14,84.34,84.34,0,0,0-47.2-28.38c0,.15,0,.3-.08.46a3.84,3.84,0,0,1-4.68,2.52,31.67,31.67,0,0,0-27.24,2.13c-3.32,1.93-6.57-1.76-5.4-4.53a84.08,84.08,0,0,0-32,15.63,5.84,5.84,0,0,1,3.12.62c4.61,2.38,3.42,8.39,1.63,12.17-1.7,3.59-4.56,6.4-6.87,9.59a17.53,17.53,0,0,0-2.74,5.18c-.65,2.12-1,4.33-1.76,6.41-1.64,4.46-5.17,8.45-10.23,8.59-6.05.17-5.63-6.46-4.49-11a11.26,11.26,0,0,1-.75-5.4A83.74,83.74,0,0,0,29.84,98c0,1,0,2.09.08,3.14a4,4,0,0,1,.68-.27,34.17,34.17,0,0,1,.93-10A9.3,9.3,0,0,1,39.47,84c3.9-.45,7.83,1.08,11.4,2.45a83.55,83.55,0,0,1,11,5.09,29.52,29.52,0,0,1,4,2.54c2.13.73,4.25,1.51,6.35,2.36a3.54,3.54,0,0,1,1.36,4.94c-3.64,5.12-8.23,9.34-12.71,13.69-.8.77-1.59,1.55-2.37,2.35a45,45,0,0,0-1.84,4.16c-2.8,7.18-4.56,14.7-8.06,21.62A3.87,3.87,0,0,1,44,144.74,84.27,84.27,0,0,0,198.44,98c0-.78,0-1.56-.06-2.34-1.38,4-2.95,8-4.43,12A3.9,3.9,0,0,1,189.28,110.18Z" style="fill:none"/><path d="M48.59,143.18c3.5-6.92,5.26-14.44,8.06-21.62a45,45,0,0,1,1.84-4.16c.78-.8,1.57-1.58,2.37-2.35,4.48-4.35,9.07-8.57,12.71-13.69a3.54,3.54,0,0,0-1.36-4.94c-2.1-.85-4.22-1.63-6.35-2.36a29.52,29.52,0,0,0-4-2.54,83.55,83.55,0,0,0-11-5.09c-3.57-1.37-7.5-2.9-11.4-2.45a9.3,9.3,0,0,0-7.94,6.85,34.17,34.17,0,0,0-.93,10,4,4,0,0,0-.68.27A83.72,83.72,0,0,0,44,144.74,3.87,3.87,0,0,0,48.59,143.18Z" style="fill:#83cc1d"/><path d="M40.78,63.29c-1.14,4.56-1.56,11.19,4.49,11,5.06-.14,8.59-4.13,10.23-8.59.77-2.08,1.11-4.29,1.76-6.41A17.53,17.53,0,0,1,60,54.13c2.31-3.19,5.17-6,6.87-9.59,1.79-3.78,3-9.79-1.63-12.17a5.84,5.84,0,0,0-3.12-.62A84.73,84.73,0,0,0,40,57.89,11.26,11.26,0,0,0,40.78,63.29Z" style="fill:#83cc1d"/><path d="M177.64,43.78a5,5,0,0,0-5,2.74A4,4,0,0,0,167,48.68c-2.58,5.83-1.68,13.16-1.35,19.36.22,4.25.56,8.51,1.11,12.75-6.12,1.59-12.45.94-18.7,1.33s-12.31,1.72-17.31,5.56c-2.65,2-4.31,5.16-2.74,8.43s4.86,4.59,8.23,4.66c2.76.07,5.2-.54,7.74.84a16.14,16.14,0,0,1,5.25,4.82c2.68,3.69,4.56,7.82,6.91,11.67a11.27,11.27,0,0,0,.74,5.19c1.44,3.53,5.06,6.65,8.94,4.32,3-1.78,4.21-5.08,5.66-8,1.27-2.55,3.3-4.35,5-6.53a8,8,0,0,0,8.46.38,12.32,12.32,0,0,0,4-3.38l.28.11a3.9,3.9,0,0,0,4.67-2.52c1.48-4,3.05-8,4.43-12a83.85,83.85,0,0,0-19.64-51.74A7.87,7.87,0,0,0,177.64,43.78Z" style="fill:#83cc1d"/><path d="M99.54,20.65a31.67,31.67,0,0,1,27.24-2.13A3.84,3.84,0,0,0,131.46,16c0-.16,0-.31.08-.46a83.55,83.55,0,0,0-37.4.58C93,18.89,96.22,22.58,99.54,20.65Z" style="fill:#83cc1d"/><path d="M168.9,38.41c-1.35,2.17-3.83,3.72-5.53,5.64a32.41,32.41,0,0,0-4.17,6.12c-.22.4-.41.8-.61,1.21.41,4.59,1.27,9.15,1,13.76-.22,3.34-.69,7.84-4.07,9.51a7.53,7.53,0,0,1-1,.39,4.38,4.38,0,0,1-.71.38,4.08,4.08,0,0,1-3,1.42l-1.83,0a9.22,9.22,0,0,1-3.93.88,6.28,6.28,0,0,1-6.15-4.34c-.74-2.69.84-5.07,2.7-6.85a31.71,31.71,0,0,0,5.47-6.66,36.07,36.07,0,0,1,.28-6.89,25.41,25.41,0,0,0-1.53-4.76A51.9,51.9,0,0,0,141,39.92c-1.61-2.39-4.62-5.32-4.56-8.37a4.25,4.25,0,0,1,1-2.71h0a8.42,8.42,0,0,1,3.87-5.06,11.77,11.77,0,0,1,9.06-1.3,9.85,9.85,0,0,1,1.72.32,84,84,0,0,0-90,9A84.73,84.73,0,0,0,40,57.89,83.74,83.74,0,0,0,29.84,98c0,1,0,2.09.08,3.14A83.72,83.72,0,0,0,44,144.74a85,85,0,0,0,17.57,19.12,2.51,2.51,0,0,1,0-.27A3.51,3.51,0,0,1,62.66,161a3.86,3.86,0,0,1,4.89-.35,5.07,5.07,0,0,0,.72.4c1,.31,2,.45,3,.71a9.15,9.15,0,0,1,4.53,2.47c2.31,2.49,2.8,5.75,2.93,9a3.29,3.29,0,0,1-.19,1.14,84.08,84.08,0,0,0,59.51,4.39,3.12,3.12,0,0,1-.27-2.51,17.5,17.5,0,0,1,6.4-8,37.35,37.35,0,0,1,8.23-4.14,4.68,4.68,0,0,1,2.92-.36,3.77,3.77,0,0,1,2.27,1.65,3.53,3.53,0,0,1,.39,2.78,2.33,2.33,0,0,1-.14.33,3,3,0,0,1,.2,1.36,84.91,84.91,0,0,0,7.83-5.46,3.34,3.34,0,0,1-1-2.08c-.07-.06-.15-.1-.23-.16a3.55,3.55,0,0,1,0-5.11c.26-.23.5-.48.74-.72l.15-.15c.33-.42.63-.86.91-1.3a27.9,27.9,0,0,0,1.55-2.91l.36-.79.08-.16,0-.11c.3-.66.59-1.32.89-2,.46-1,.93-2,1.48-3a23.56,23.56,0,0,1,10.87-9.78c1.76-.76,4.16-.59,5.2,1.3a4.64,4.64,0,0,1,.57,1.87A83.81,83.81,0,0,0,198.44,98c0-.78,0-1.56-.06-2.34a83.85,83.85,0,0,0-19.64-51.74,85,85,0,0,0-9.21-9.38A4.56,4.56,0,0,1,168.9,38.41Z" style="fill:none"/><path d="M150.39,22.47a11.77,11.77,0,0,0-9.06,1.3,8.42,8.42,0,0,0-3.87,5.06h0a4.25,4.25,0,0,0-1,2.71c-.06,3.05,2.95,6,4.56,8.37a51.9,51.9,0,0,1,4.79,8.34A25.41,25.41,0,0,1,147.34,53a36.07,36.07,0,0,0-.28,6.89,31.71,31.71,0,0,1-5.47,6.66c-1.86,1.78-3.44,4.16-2.7,6.85A6.28,6.28,0,0,0,145,77.76a9.22,9.22,0,0,0,3.93-.88l1.83,0a4.08,4.08,0,0,0,3-1.42,4.38,4.38,0,0,0,.71-.38,7.53,7.53,0,0,0,1-.39c3.38-1.67,3.85-6.17,4.07-9.51.31-4.61-.55-9.17-1-13.76.2-.41.39-.81.61-1.21a32.41,32.41,0,0,1,4.17-6.12c1.7-1.92,4.18-3.47,5.53-5.64a4.56,4.56,0,0,0,.63-3.87,84.4,84.4,0,0,0-17.42-11.75A9.85,9.85,0,0,0,150.39,22.47Z" style="fill:#83cc1d"/><path d="M181.78,136.21A23.56,23.56,0,0,0,170.91,146c-.55,1-1,2-1.48,3-.3.67-.59,1.33-.89,2l0,.11-.08.16-.36.79a27.9,27.9,0,0,1-1.55,2.91c-.28.44-.58.88-.91,1.3l-.15.15c-.24.24-.48.49-.74.72a3.55,3.55,0,0,0,0,5.11c.08.06.16.1.23.16a3.34,3.34,0,0,0,1,2.08,84.82,84.82,0,0,0,21.62-25.07,4.64,4.64,0,0,0-.57-1.87C185.94,135.62,183.54,135.45,181.78,136.21Z" style="fill:#83cc1d"/><path d="M158,168.22a3.53,3.53,0,0,0-.39-2.78,3.77,3.77,0,0,0-2.27-1.65,4.68,4.68,0,0,0-2.92.36,37.35,37.35,0,0,0-8.23,4.14,17.5,17.5,0,0,0-6.4,8,3.12,3.12,0,0,0,.27,2.51,84.06,84.06,0,0,0,20-8.91,3,3,0,0,0-.2-1.36A2.33,2.33,0,0,0,158,168.22Z" style="fill:#83cc1d"/><path d="M75.85,164.27a9.15,9.15,0,0,0-4.53-2.47c-1-.26-2-.4-3-.71a5.07,5.07,0,0,1-.72-.4,3.86,3.86,0,0,0-4.89.35,3.51,3.51,0,0,0-1.11,2.55,2.51,2.51,0,0,0,0,.27,84.43,84.43,0,0,0,17,10.57,3.29,3.29,0,0,0,.19-1.14C78.65,170,78.16,166.76,75.85,164.27Z" style="fill:#83cc1d"/><path d="M178.74,43.92a85.08,85.08,0,0,0-26.63-21.13,84,84,0,0,0-90,9A84.73,84.73,0,0,0,40,57.89,83.74,83.74,0,0,0,29.84,98c0,1,0,2.09.08,3.14A83.72,83.72,0,0,0,44,144.74a85,85,0,0,0,34.57,29.69,84.18,84.18,0,0,0,79.51-4.52,85.65,85.65,0,0,0,29.45-30.53A83.81,83.81,0,0,0,198.44,98c0-.78,0-1.56-.06-2.34A83.85,83.85,0,0,0,178.74,43.92Z" style="fill:none"/><path d="M178.74,43.92a85.08,85.08,0,0,0-26.63-21.13,84,84,0,0,0-90,9A84.73,84.73,0,0,0,40,57.89,83.74,83.74,0,0,0,29.84,98c0,1,0,2.09.08,3.14A83.72,83.72,0,0,0,44,144.74a85,85,0,0,0,34.57,29.69,84.18,84.18,0,0,0,79.51-4.52,85.65,85.65,0,0,0,29.45-30.53A83.81,83.81,0,0,0,198.44,98c0-.78,0-1.56-.06-2.34A83.85,83.85,0,0,0,178.74,43.92Z" style="fill:none"/><path d="M198.74,94.6A84.58,84.58,0,0,0,61.42,31.82a85.35,85.35,0,0,0-21.25,25A84.1,84.1,0,0,0,29.46,98c0,1.12,0,2.23.08,3.33A84.72,84.72,0,0,0,39.9,138.69c1.1,2,2.28,3.94,3.53,5.84a85.41,85.41,0,0,0,35,30.24A84.64,84.64,0,0,0,158,170.4a86.12,86.12,0,0,0,29.52-30.28A84.12,84.12,0,0,0,198.82,98C198.82,96.86,198.78,95.73,198.74,94.6Zm-11.19,44.78a84.31,84.31,0,0,1-73.41,42.93,83.95,83.95,0,0,1-52.55-18.45A85,85,0,0,1,44,144.74a83.72,83.72,0,0,1-14.1-43.6c0-1-.08-2.09-.08-3.14A83.74,83.74,0,0,1,40,57.89,84.34,84.34,0,0,1,114.14,13.7a84.35,84.35,0,0,1,55.39,20.84,85,85,0,0,1,9.21,9.38,83.85,83.85,0,0,1,19.64,51.74c0,.78.06,1.56.06,2.34A83.81,83.81,0,0,1,187.55,139.38Z"/><path d="M132.58,42.06l-82.4,64.67L49,105.29,23,90.49l5.31-4.17c4.13-3.23,23.59,6.3,25,7a40.68,40.68,0,0,1,5.19-5.51L78,72.5,45.56,55.28l.1-.1c4.49-4.78,8.46-4.66,8.5-4.66l50.66,1.27,14.46-11.36a5.2,5.2,0,0,1,2.82-1.1c7.33-1.61,9.26,1.16,9.33,1.27Z" style="fill:#e9f4ff"/><path d="M99,123.56l-.13.08L90.3,88.2,70.81,103.5a39,39,0,0,1-6.58,3.74c.33,1.47,5,22.65.84,25.88l-5.31,4.17,0-.15-8.15-28.61-1.4-1.8,82.4-64.67L134,43.88c.06.07,1.62,1.73-1,9.35a5.12,5.12,0,0,1-1.74,2.47L116.8,67.05l-11.29,49.36S104.67,120.34,99,123.56Z" style="fill:#b6c0c6"/><path d="M105.51,116.41,116.8,67.05,131.26,55.7A5.12,5.12,0,0,0,133,53.23c2.63-7.62,1.07-9.28,1-9.35l-2.58-3.28c-.07-.11-2-2.88-9.33-1.27a5.2,5.2,0,0,0-2.82,1.1L104.82,51.79,54.16,50.52s-4-.12-8.5,4.66l-.1.1L78,72.5,58.48,87.79a40.68,40.68,0,0,0-5.19,5.51c-1.36-.68-20.82-10.21-24.95-7L23,90.49l26,14.8,1.14,1.44,1.4,1.8,8.15,28.61,0,.15,5.31-4.17c4.13-3.23-.51-24.41-.84-25.88a39,39,0,0,0,6.58-3.74L90.3,88.2l8.53,35.44.13-.08C104.67,120.34,105.5,116.45,105.51,116.41ZM99,123.32,90.46,88l0-.16-19.74,15.5A38.77,38.77,0,0,1,64,107.12l.05.21c.36,1.65,4.84,22.54.9,25.63l-5.06,4-8.05-28.27-.09-.26-2.55-3.25L49,105,23.41,90.46l5.06-4c3.93-3.09,23.17,6.23,24.69,7l.19.08A39.41,39.41,0,0,1,58.61,88L78.35,72.47,45.9,55.22c4.39-4.6,8.21-4.5,8.26-4.5L104.86,52h0l14.52-11.4a5,5,0,0,1,2.72-1.06c7.19-1.58,9.1,1.16,9.14,1.18l2.59,3.3s1.51,1.69-1.06,9.15a5.11,5.11,0,0,1-1.67,2.36l-14.52,11.4-11.3,49.44S104.49,120.15,99,123.32Z"/><path d="M147.63,180.39l0,.35a3.89,3.89,0,0,0,7.77,0v-.35Z" style="fill:#726e68"/><path d="M173.31,180.39l0,.35a3.88,3.88,0,0,0,7.76,0l0-.35Z" style="fill:#726e68"/><path d="M147.64,180.57v.17a3.89,3.89,0,0,0,7.77,0v-.35h-7.8Z" style="fill:none"/><path d="M173.32,180.57v.17a3.88,3.88,0,0,0,7.76,0v-.35h-7.8Z" style="fill:none"/><polygon points="158.37 100.67 156.83 100.67 156.83 100.85 156.83 101.02 156.83 112.25 158.37 112.25 158.37 100.67" style="fill:#726e68"/><polygon points="165.53 101.07 165.53 112.25 167.08 112.25 167.08 101.02 167.08 100.85 167.08 100.67 165.53 100.67 165.53 101.07" style="fill:#726e68"/><polygon points="158.72 100.67 165.18 100.67 165.53 100.67 167.08 100.67 167.43 100.67 170.04 100.67 170.04 98.77 153.87 98.77 153.87 100.67 156.48 100.67 156.83 100.67 158.37 100.67 158.72 100.67" style="fill:#3f3b36"/><polyline points="165.53 112.25 165.18 112.25 158.72 112.25 158.37 112.25 156.83 112.25 156.48 112.25 136.86 112.25 136.86 180.39 147.3 180.39 147.63 180.39 147.63 180.38 147.63 180.39 155.43 180.39 155.77 180.39 172.97 180.39 173.31 180.39 181.11 180.39 181.44 180.39 188.71 180.39 188.71 112.25 167.43 112.25 167.08 112.25" style="fill:#ceb074"/><path d="M167.08,112.25V100.67h3V98.76H153.87v1.91h3v11.58h-20v68.14h10.77v.35a3.89,3.89,0,0,0,7.77,0v-.35h17.88v.35a3.88,3.88,0,0,0,7.76,0v-.35h7.6V112.25H167.08Z" style="fill:none"/><path d="M167.43,111.91V101h3v-2.6H153.52V101h3v10.89h-20v68.83h10.81a4.22,4.22,0,0,0,8.43,0H173a4.22,4.22,0,0,0,8.44,0h7.63V111.91Zm21.28,68.48h-7.6v.35a3.88,3.88,0,0,1-7.76,0v-.35H155.43v.35a3.89,3.89,0,0,1-7.77,0v-.35H136.86V112.25h20V100.67h-3V98.76H170v1.91h-3v11.58h21.63Z"/></g></svg>